<mxfile host="65bd71144e">
    <diagram id="Oprscni3NWDBsykFGOMx" name="Page-1">
        <mxGraphModel dx="729" dy="398" grid="1" gridSize="10" guides="1" tooltips="1" connect="1" arrows="1" fold="1" page="1" pageScale="1" pageWidth="827" pageHeight="1169" math="0" shadow="0">
            <root>
                <mxCell id="0"/>
                <mxCell id="1" parent="0"/>
                <mxCell id="2" value="App" style="rounded=1;whiteSpace=wrap;html=1;" vertex="1" parent="1">
                    <mxGeometry x="270" y="180" width="120" height="60" as="geometry"/>
                </mxCell>
                <mxCell id="3" value="Resources" style="rounded=1;whiteSpace=wrap;html=1;" vertex="1" parent="1">
                    <mxGeometry x="90" y="290" width="120" height="60" as="geometry"/>
                </mxCell>
                <mxCell id="4" value="Self-care" style="rounded=1;whiteSpace=wrap;html=1;" vertex="1" parent="1">
                    <mxGeometry x="270" y="290" width="120" height="60" as="geometry"/>
                </mxCell>
                <mxCell id="5" value="Mindset" style="rounded=1;whiteSpace=wrap;html=1;" vertex="1" parent="1">
                    <mxGeometry x="490" y="290" width="120" height="60" as="geometry"/>
                </mxCell>
                <mxCell id="6" value="Behaviour of each component:&lt;br&gt;App - state&lt;br&gt;Resources - select category with radio box/check boxes - state&lt;br&gt;search input, search button&lt;br&gt;Render Search Results - component&lt;br&gt;&lt;br&gt;Self-care - take a break, pop up alert - state, input/select times, confirm button,&lt;br&gt;self care resources.&lt;br&gt;&lt;br&gt;Mindset - show career pdf&amp;nbsp;&lt;br&gt;-" style="text;html=1;align=center;verticalAlign=middle;resizable=0;points=[];autosize=1;strokeColor=none;fillColor=none;" vertex="1" parent="1">
                    <mxGeometry x="10" y="360" width="430" height="160" as="geometry"/>
                </mxCell>
            </root>
        </mxGraphModel>
    </diagram>
</mxfile>